<svg width="22" height="22" viewBox="0 0 22 22" fill="none" xmlns="http://www.w3.org/2000/svg">
<path d="M9.63235 18.6175H11.4847V17.2707C12.3668 17.1091 13.1254 16.759 13.7605 16.2203C14.3956 15.6816 14.7132 14.8825 14.7132 13.8231C14.7132 13.0689 14.5015 12.3775 14.0781 11.7491C13.6547 11.1206 12.8079 10.5729 11.5377 10.106C10.4792 9.74689 9.74702 9.43265 9.34126 9.1633C8.9355 8.89395 8.73263 8.52583 8.73263 8.05896C8.73263 7.59209 8.89581 7.22397 9.22218 6.95462C9.54855 6.68527 10.0205 6.5506 10.6379 6.5506C11.2025 6.5506 11.6435 6.68976 11.9611 6.96809C12.2786 7.24642 12.5079 7.59209 12.6491 8.00509L14.3427 7.30478C14.1486 6.67629 13.7914 6.12861 13.2709 5.66174C12.7505 5.19487 12.1728 4.93449 11.5377 4.88062V3.53387H9.68528V4.88062C8.80319 5.07815 8.11517 5.4732 7.6212 6.06577C7.12723 6.65834 6.88025 7.32274 6.88025 8.05896C6.88025 8.90292 7.12282 9.58528 7.60797 10.106C8.09311 10.6268 8.85612 11.0757 9.89698 11.4528C11.0084 11.8658 11.7802 12.2339 12.2124 12.5571C12.6447 12.8803 12.8608 13.3023 12.8608 13.8231C12.8608 14.4156 12.6535 14.8511 12.2389 15.1294C11.8243 15.4077 11.326 15.5469 10.7438 15.5469C10.1616 15.5469 9.64558 15.3628 9.19572 14.9947C8.74586 14.6266 8.41508 14.0745 8.20338 13.3382L6.45685 14.0385C6.70383 14.9005 7.08754 15.5963 7.60797 16.126C8.1284 16.6557 8.80319 17.0194 9.63235 17.2169V18.6175ZM10.585 21.8497C9.12074 21.8497 7.74469 21.5669 6.45685 21.0012C5.16901 20.4356 4.04876 19.668 3.09611 18.6983C2.14346 17.7286 1.38928 16.5884 0.833569 15.2776C0.277856 13.9667 0 12.5661 0 11.0757C0 9.58528 0.277856 8.18466 0.833569 6.87382C1.38928 5.56298 2.14346 4.42273 3.09611 3.45307C4.04876 2.4834 5.16901 1.71576 6.45685 1.15012C7.74469 0.584484 9.12074 0.301666 10.585 0.301666C12.0493 0.301666 13.4253 0.584484 14.7132 1.15012C16.001 1.71576 17.1212 2.4834 18.0739 3.45307C19.0265 4.42273 19.7807 5.56298 20.3364 6.87382C20.8921 8.18466 21.17 9.58528 21.17 11.0757C21.17 12.5661 20.8921 13.9667 20.3364 15.2776C19.7807 16.5884 19.0265 17.7286 18.0739 18.6983C17.1212 19.668 16.001 20.4356 14.7132 21.0012C13.4253 21.5669 12.0493 21.8497 10.585 21.8497Z" fill="white"/>
</svg>
