<svg width="30" height="22" viewBox="0 0 30 22" fill="none" xmlns="http://www.w3.org/2000/svg">
<path d="M11.5858 21.5699L11.5777 21.5663L11.552 21.5521C11.4018 21.468 11.2529 21.3817 11.1052 21.2932C9.32928 20.2191 7.66965 18.9573 6.15383 17.5288C3.46933 14.9792 0.625 11.1959 0.625 6.53613C0.625 3.05913 3.49967 0.301751 6.96933 0.301751C7.93388 0.296942 8.88708 0.51353 9.75804 0.935407C10.629 1.35728 11.3953 1.97359 12 2.7385C12.6048 1.97344 13.3713 1.35703 14.2425 0.935148C15.1137 0.513265 16.0671 0.296763 17.0318 0.301751C20.5003 0.301751 23.375 3.05913 23.375 6.53613C23.375 11.1971 20.5307 14.9804 17.8462 17.5276C16.3304 18.9562 14.6707 20.2179 12.8948 21.292C12.7471 21.3809 12.5982 21.4676 12.448 21.5521L12.4223 21.5663L12.4142 21.5711L12.4107 21.5723C12.2842 21.6405 12.1432 21.6761 12 21.6761C11.8568 21.6761 11.7158 21.6405 11.5893 21.5723L11.5858 21.5699Z" fill="white"/>
<path d="M21.8933 19.6072L25.0833 13.2625H22.8833V9.15716L19.5833 15.5018H21.8933V19.6072ZM22.3333 21.8464C21.3189 21.8464 20.3656 21.6505 19.4733 21.2586C18.5811 20.8668 17.805 20.3349 17.145 19.6631C16.485 18.9914 15.9625 18.2014 15.5775 17.2932C15.1925 16.3851 15 15.4147 15 14.3822C15 13.3496 15.1925 12.3792 15.5775 11.4711C15.9625 10.5629 16.485 9.77297 17.145 9.10118C17.805 8.4294 18.5811 7.89756 19.4733 7.50569C20.3656 7.11381 21.3189 6.91788 22.3333 6.91788C23.3478 6.91788 24.3011 7.11381 25.1933 7.50569C26.0856 7.89756 26.8617 8.4294 27.5217 9.10118C28.1817 9.77297 28.7042 10.5629 29.0892 11.4711C29.4742 12.3792 29.6667 13.3496 29.6667 14.3822C29.6667 15.4147 29.4742 16.3851 29.0892 17.2932C28.7042 18.2014 28.1817 18.9914 27.5217 19.6631C26.8617 20.3349 26.0856 20.8668 25.1933 21.2586C24.3011 21.6505 23.3478 21.8464 22.3333 21.8464Z" fill="#894189"/>
<path d="M22.2667 19.1321L25.1667 13.3643H23.1667V9.63212L20.1667 15.4H22.2667V19.1321ZM22.6667 21.1678C21.7444 21.1678 20.8778 20.9897 20.0667 20.6335C19.2556 20.2772 18.55 19.7937 17.95 19.183C17.35 18.5723 16.875 17.8541 16.525 17.0285C16.175 16.203 16 15.3208 16 14.3821C16 13.4434 16.175 12.5613 16.525 11.7357C16.875 10.9101 17.35 10.1919 17.95 9.58123C18.55 8.97051 19.2556 8.48703 20.0667 8.13078C20.8778 7.77453 21.7444 7.59641 22.6667 7.59641C23.5889 7.59641 24.4556 7.77453 25.2667 8.13078C26.0778 8.48703 26.7833 8.97051 27.3833 9.58123C27.9833 10.1919 28.4583 10.9101 28.8083 11.7357C29.1583 12.5613 29.3333 13.4434 29.3333 14.3821C29.3333 15.3208 29.1583 16.203 28.8083 17.0285C28.4583 17.8541 27.9833 18.5723 27.3833 19.183C26.7833 19.7937 26.0778 20.2772 25.2667 20.6335C24.4556 20.9897 23.5889 21.1678 22.6667 21.1678Z" fill="white"/>
</svg>
